HIERARCHY
ROOT Hips
{
	OFFSET -3.958830 18.904000 13.208200
	CHANNELS 6 Xposition Yposition Zposition Zrotation Yrotation Xrotation 
	JOINT LHipJoint
	{
		OFFSET 0.000000 0.000000 0.000000
		CHANNELS 3 Zrotation Yrotation Xrotation
		JOINT LeftUpLeg
		{
			OFFSET 1.800000 -1.400000 0.085000
			CHANNELS 3 Zrotation Yrotation Xrotation
			JOINT LeftLeg
			{
				OFFSET 2.215000 -6.000000 0.000000
				CHANNELS 3 Zrotation Yrotation Xrotation
				JOINT LeftFoot
				{
					OFFSET 2.500000 -6.900000 0.000000
					CHANNELS 3 Zrotation Yrotation Xrotation
					JOINT LeftToeBase
					{
						OFFSET 0.200000 -0.500000 1.950000
						CHANNELS 3 Zrotation Yrotation Xrotation
						End Site
						{
							OFFSET 0.000000 0.000000 0.000000
						}
					}
				}
			}
		}
	}
	JOINT RHipJoint
	{
		OFFSET 0.000000 0.000000 0.000000
		CHANNELS 3 Zrotation Yrotation Xrotation
		JOINT RightUpLeg
		{
			OFFSET -1.800000 -1.400000 0.085000
			CHANNELS 3 Zrotation Yrotation Xrotation
			JOINT RightLeg
			{
				OFFSET -2.215000 -6.000000 0.000000
				CHANNELS 3 Zrotation Yrotation Xrotation
				JOINT RightFoot
				{
					OFFSET -2.500000 -6.900000 0.000000
					CHANNELS 3 Zrotation Yrotation Xrotation
					JOINT RightToeBase
					{
						OFFSET -0.200000 -0.500000 1.950000
						CHANNELS 3 Zrotation Yrotation Xrotation
						End Site
						{
							OFFSET 0.000000 0.000000 0.000000
						}
					}
				}
			}
		}
	}
	JOINT LowerBack
	{
		OFFSET 0.000000 0.000000 0.000000
		CHANNELS 3 Zrotation Yrotation Xrotation
		JOINT Spine
		{
			OFFSET -0.087000 1.940000 -0.288900
			CHANNELS 3 Zrotation Yrotation Xrotation
			JOINT Spine1
			{
				OFFSET 0.000000 1.950000 0.060000
				CHANNELS 3 Zrotation Yrotation Xrotation
				JOINT Neck
				{
					OFFSET 0.000000 0.000000 0.000000
					CHANNELS 3 Zrotation Yrotation Xrotation
					JOINT Neck1
					{
						OFFSET 0.000000 1.600000 0.340000
						CHANNELS 3 Zrotation Yrotation Xrotation
						JOINT Head
						{
							OFFSET 0.000000 1.667000 -0.240000
							CHANNELS 3 Zrotation Yrotation Xrotation
							End Site
							{
								OFFSET 0.000000 0.000000 0.000000
							}
						}
					}
				}
				JOINT LeftShoulder
				{
					OFFSET 0.000000 0.000000 0.000000
					CHANNELS 3 Zrotation Yrotation Xrotation
					JOINT LeftArm
					{
						OFFSET 2.700000 1.550000 -0.730000
						CHANNELS 3 Zrotation Yrotation Xrotation
						JOINT LeftForeArm
						{
							OFFSET 5.450000 0.000000 0.000000
							CHANNELS 3 Zrotation Yrotation Xrotation
							JOINT LeftHand
							{
								OFFSET 3.450000 0.000000 0.000000
								CHANNELS 3 Zrotation Yrotation Xrotation
								JOINT LeftHandIndex1
								{
									OFFSET 0.750000 0.000000 0.000000
									CHANNELS 3 Zrotation Yrotation Xrotation
									End Site
									{
										OFFSET 0.000000 0.000000 0.000000
									}
								}
							}
						}
					}
				}
				JOINT RightShoulder
				{
					OFFSET 0.000000 0.000000 0.000000
					CHANNELS 3 Zrotation Yrotation Xrotation
					JOINT RightArm
					{
						OFFSET -2.700000 1.550000 -0.730000
						CHANNELS 3 Zrotation Yrotation Xrotation
						JOINT RightForeArm
						{
							OFFSET -5.450000 0.000000 0.000000
							CHANNELS 3 Zrotation Yrotation Xrotation
							JOINT RightHand
							{
								OFFSET -3.450000 0.000000 0.000000
								CHANNELS 3 Zrotation Yrotation Xrotation
								JOINT RightHandIndex1
								{
									OFFSET -0.750000 0.000000 0.000000
									CHANNELS 3 Zrotation Yrotation Xrotation
									End Site
									{
										OFFSET 0.000000 0.000000 0.000000
									}
								}
							}
						}
					}
				}
			}
		}
	}
}
MOTION
Frames: 8
Frame Time: 0.016667
-0.235940 17.233190 -3.291560 6.774835 27.118421 7.859101 -14.923190 11.547515 3.287657 6.393678 -6.047273 -30.236542 -6.127996 6.900308 26.006644 -0.601766 4.613952 2.891360 0.417160 0.036430 0.393130 18.664166 -9.737788 4.666775 -29.605789 4.129976 -31.060953 35.485581 -19.767942 30.813223 -1.172763 -8.471188 1.389315 0.081590 0.069150 0.052640 -4.931467 -0.246132 -8.924104 17.663868 -0.898331 23.008543 -10.822219 3.803713 1.936462 2.765120 -2.023595 -8.153469 -8.178859 -5.841421 45.746400 0.838300 -10.044490 -11.424970 -25.107887 -5.496035 1.353891 -38.145780 4.374508 -10.334681 -49.753250 -37.917648 12.214464 -3.437170 3.053292 0.683940 -0.093580 0.037310 0.119630 18.368192 8.282580 5.370890 46.634465 -2.805382 -11.418653 42.841127 22.868526 3.390887 2.229474 -1.395421 -0.263280 0.303630 -0.041470 -0.249630 
-0.254430 17.215990 -3.246320 6.855289 27.801273 8.108311 -14.870221 11.283324 3.209629 8.353731 -5.736763 -29.708747 -8.640089 7.578777 24.642726 -0.583537 4.802616 2.823192 0.413570 0.032580 0.405820 18.756121 -9.649445 4.813258 -31.411905 3.536849 -29.668271 40.431635 -19.572483 26.230389 -1.207878 -8.426113 1.407533 0.085450 0.076010 0.062290 -5.102147 0.107785 -8.959617 17.791848 -0.428008 20.401460 -11.881653 3.966085 2.666579 3.089986 -0.556344 -8.057129 -5.181389 -6.869583 45.895225 -0.463510 -9.462090 -10.045080 -25.106946 -6.055287 1.647379 -36.827131 4.185328 -9.740386 -48.745370 -37.128128 11.777302 -3.462972 3.053659 0.661890 -0.060350 0.026200 0.117600 17.702584 7.497282 5.134927 49.081253 -2.198957 -10.970756 41.049898 21.150610 2.662097 2.232382 -1.394086 -0.265470 0.293170 -0.045500 -0.259160 
-0.276240 17.193790 -3.205280 7.025879 28.233726 8.481997 -14.830828 11.028414 3.171096 9.997535 -5.479445 -29.332561 -10.855669 8.141056 23.360876 -0.554717 4.997033 2.763214 0.398840 0.019620 0.404890 18.836250 -9.566504 4.916067 -32.868489 3.010662 -28.390806 44.171759 -19.138095 22.577571 -1.230175 -8.400093 1.422100 0.087580 0.096180 0.070140 -5.226102 0.426276 -8.977682 17.574938 0.205404 18.014711 -12.696528 4.247914 3.190840 3.367919 0.835371 -7.958575 -2.295530 -7.995832 45.380315 -1.798400 -8.967760 -8.370480 -25.216965 -6.583580 1.907535 -35.274975 3.987175 -9.060848 -48.349933 -36.411684 11.615622 -3.494063 3.061826 0.629890 -0.019200 0.006830 0.122630 17.259702 6.834531 4.954144 51.300514 -1.743137 -10.496268 39.375121 19.610000 2.055713 2.234865 -1.402550 -0.273550 0.285790 -0.049050 -0.261830 
-0.299820 17.171240 -3.173100 7.212499 28.563900 8.852573 -14.798908 10.809860 3.149373 11.150592 -5.308000 -29.119367 -12.422994 8.534810 22.461486 -0.517115 5.152489 2.721687 0.383290 0.006360 0.400600 18.905590 -9.511786 4.977435 -33.945492 2.556922 -27.350032 46.767127 -18.819673 20.090960 -1.243849 -8.418767 1.426828 0.085600 0.117680 0.077620 -5.328111 0.708900 -8.970097 17.314776 0.802001 15.958906 -13.487298 4.538535 3.529205 3.597148 2.052103 -7.882870 0.197085 -9.153134 44.487337 -3.103600 -8.659310 -6.502810 -25.510619 -7.148058 2.144640 -33.399817 3.853804 -8.378148 -48.508149 -35.869052 11.726659 -3.521960 3.086953 0.585910 0.024430 -0.019130 0.128630 17.090133 6.376710 4.863614 53.444694 -1.534796 -10.180364 37.663824 18.560330 1.592074 2.238582 -1.420963 -0.274530 0.270600 -0.056110 -0.259310 
-0.326260 17.151140 -3.147500 7.225075 28.732822 9.081734 -14.775281 10.651280 3.124032 12.059259 -5.121522 -28.971858 -13.376124 8.761597 21.738993 -0.504113 5.269545 2.696770 0.348520 -0.030450 0.378520 18.958348 -9.475766 5.014063 -34.593247 2.280555 -26.631717 48.701301 -18.715889 18.549334 -1.249079 -8.473690 1.425838 0.076690 0.157910 0.084270 -5.403255 0.924257 -8.943536 17.121935 1.293255 14.355880 -14.129600 4.796208 3.653012 3.765252 2.963284 -7.767520 2.096998 -10.049356 43.309349 -4.195720 -8.423250 -4.829770 -25.928744 -7.602416 2.276232 -31.570511 3.702323 -7.687766 -48.990048 -35.197434 11.850158 -3.567352 3.098440 0.546720 0.076570 -0.056950 0.129070 17.153282 6.068038 4.780181 55.218619 -1.335753 -9.886026 35.909270 17.727828 1.226554 2.232445 -1.423047 -0.289450 0.268040 -0.042550 -0.257830 
-0.355410 17.141000 -3.128450 7.174348 28.593728 9.125381 -14.758936 10.577780 3.092032 12.617432 -4.934863 -28.715236 -13.795577 8.859491 21.249493 -0.494071 5.328287 2.683611 0.306440 -0.078050 0.354330 18.986025 -9.479564 5.026044 -34.810549 2.155745 -26.159285 49.719424 -18.690093 17.779359 -1.244778 -8.508062 1.420231 0.055110 0.187230 0.095360 -5.447882 1.070072 -8.912915 16.865696 1.635263 13.261875 -14.652750 4.949101 3.614757 3.900504 3.546931 -7.785144 3.358590 -10.501326 42.697568 -4.906840 -8.139710 -3.506720 -26.057531 -7.916309 2.470659 -30.478426 3.738559 -7.262775 -49.387452 -34.920365 12.019353 -3.606082 3.109394 0.519240 0.113360 -0.083510 0.118930 17.002638 5.963488 4.746583 56.965255 -0.921704 -9.571377 34.176842 16.977996 0.955406 2.236839 -1.412123 -0.297990 0.258690 -0.019270 -0.256740 
-0.387060 17.140990 -3.113920 7.057458 28.136950 9.113715 -14.749839 10.565268 3.046962 12.908839 -4.745305 -28.401833 -13.797956 8.813994 20.776231 -0.499815 5.314708 2.698215 0.270640 -0.117200 0.321740 18.998351 -9.495925 5.026574 -34.712934 2.173848 -26.146481 50.031912 -18.757794 17.685845 -1.233071 -8.537359 1.423284 0.038120 0.221220 0.098630 -5.465186 1.145132 -8.868409 16.556186 1.858203 12.464347 -14.908526 5.020703 3.636813 3.918273 3.736614 -7.776202 3.854476 -10.537185 42.135328 -5.009570 -8.012340 -2.676410 -25.882077 -8.042195 2.610441 -30.149397 3.665437 -7.016018 -49.468661 -34.674976 12.014370 -3.641183 3.107721 0.500330 0.142760 -0.111280 0.115790 16.796042 5.973805 4.674940 58.318839 -0.333473 -9.221013 32.806848 16.359414 0.781463 2.234731 -1.398720 -0.309600 0.261060 0.004630 -0.252610 
-0.420770 17.151640 -3.104220 6.826473 27.550117 8.928409 -14.748235 10.613495 2.991269 13.037468 -4.542227 -27.979995 -13.417867 8.638262 20.352716 -0.508919 5.217973 2.728239 0.268480 -0.114770 0.322140 18.989914 -9.550455 5.000046 -34.182608 2.322045 -26.355007 49.510309 -18.878427 18.234901 -1.230367 -8.540585 1.419251 0.033690 0.219230 0.108140 -5.455057 1.186438 -8.812597 16.214671 1.984377 12.038046 -14.927622 5.018708 3.719988 3.961647 3.936292 -7.798732 4.369213 -10.492941 41.734218 -5.020670 -7.684340 -2.830010 -25.415166 -8.082460 2.733972 -30.299411 3.446659 -6.888264 -49.605485 -34.394348 11.957487 -3.653452 3.112004 0.494570 0.146860 -0.107020 0.110250 16.285537 5.901787 4.579847 59.645722 0.313811 -8.983932 31.742906 16.098742 0.705681 2.239951 -1.392814 -0.299550 0.251450 0.007300 -0.250890 
